<svg width="24" height="24" viewBox="0 0 48 48" fill="none" xmlns="http://www.w3.org/2000/svg">
  <mask id="mask0_icon" style="mask-type:luminance" maskUnits="userSpaceOnUse" x="0" y="0" width="48" height="48">
    <rect width="48" height="48" fill="white"/>
  </mask>
  <g mask="url(#mask0_icon)">
    <path d="M45,48H23a3,3,0,0,1-3-3V18h2V45a1,1,0,0,0,1,1H45a1,1,0,0,0,1-1V3a1,1,0,0,0-1-1H23a1,1,0,0,0-1,1V7H20V3a3,3,0,0,1,3-3H45a3,3,0,0,1,3,3V45A3,3,0,0,1,45,48Z" fill="#1C274C"/>
    <path d="M45,42H23a3,3,0,0,1-3-3h2a1,1,0,0,0,1,1H45a1,1,0,0,0,1-1h2A3,3,0,0,1,45,42Z" fill="#1C274C"/>
    <path d="M48,9H46a1,1,0,0,0-1-1H34V6H45A3,3,0,0,1,48,9Z" fill="#1C274C"/>
    <path d="M7,31H1a1,1,0,0,1-1-1V10A1,1,0,0,1,1,9H7a1,1,0,0,1,1,1V30A1,1,0,0,1,7,31ZM2,29H6V11H2Z" fill="#1C274C"/>
    <path d="M17,19H13V17h3.59l3.7-3.71A1,1,0,0,1,21,13h7a3,3,0,0,0,3-3V9a1,1,0,0,0-1-1H21V6h9a3,3,0,0,1,3,3v1a5,5,0,0,1-5,5H21.41l-3.7,3.71A1,1,0,0,1,17,19Z" fill="#1C274C"/>
    <path d="M19,34H15a1,1,0,0,1-.71-.29L10.59,30H7a1,1,0,0,1-1-1V11a1,1,0,0,1,1-1h3.59l3.7-3.71A1,1,0,0,1,15,6h6V8H15.41l-3.7,3.71A1,1,0,0,1,11,12H8V28h3a1,1,0,0,1,.71.29L15.41,32H19Z" fill="#1C274C"/>
    <path d="M34,31a4,4,0,0,1-4-4h2a2,2,0,1,0,2-2,4,4,0,1,1,4-4H36a2,2,0,1,0-2,2,4,4,0,0,1,0,8Z" fill="#1C274C"/>
    <rect x="33" y="30" width="2" height="3" fill="#1C274C"/>
    <rect x="33" y="15" width="2" height="3" fill="#1C274C"/>
    <rect x="33" y="3" width="2" height="2" fill="#1C274C"/>
    <rect x="33" y="43" width="2" height="2" fill="#1C274C"/>
    <rect x="39" y="43" width="2" height="2" fill="#1C274C"/>
    <rect x="27" y="43" width="2" height="2" fill="#1C274C"/>
  </g>
</svg>
